<?xml version="1.0" encoding="utf-8"?>
<!-- Generator: Adobe Illustrator 24.3.0, SVG Export Plug-In . SVG Version: 6.00 Build 0)  -->
<svg version="1.1" id="Capa_1" xmlns="http://www.w3.org/2000/svg" xmlns:xlink="http://www.w3.org/1999/xlink" x="0px" y="0px"
	 viewBox="0 0 703.86 324.15" style="enable-background:new 0 0 703.86 324.15;" xml:space="preserve">
<style type="text/css">
	.st0{fill:#1E1E1C;}
	.st1{fill:#E30C30;}
	.st2{fill:#1B87C9;}
</style>
<g>
	<g>
		<g>
			<path class="st0" d="M228.15,67.16h22.49v80.78h-22.49V67.16z"/>
			<path class="st0" d="M268.89,67.16h23.66l19.27,31.27l19.28-31.27h23.66v80.78h-22.27v-46.4l-20.67,31.62h-0.46l-20.54-31.39
				v46.16h-21.93V67.16z"/>
			<path class="st0" d="M396.88,66.58h21.58l34.38,81.36h-24l-5.87-14.43H391.8l-5.78,14.43h-23.53L396.88,66.58z M416.49,116.09
				l-9-22.97l-9.11,22.97H416.49z"/>
			<path class="st0" d="M453.89,107.78v-0.23c0-23.54,18.46-42.01,43.49-42.01c14.2,0,24.24,4.39,32.79,11.77l-13.16,15.81
				c-5.78-4.85-11.54-7.62-19.5-7.62c-11.66,0-20.67,9.81-20.67,22.16v0.24c0,13.04,9.13,22.38,21.93,22.38
				c5.43,0,9.59-1.15,12.94-3.35v-9.81h-15.93v-16.39h37.16v36.35c-8.55,7.04-20.43,12.46-35.09,12.46
				C472.7,149.55,453.89,132.24,453.89,107.78z"/>
			<path class="st0" d="M627.58,67.16h20.89l33.23,42.7v-42.7h22.16v80.78h-19.63l-34.5-44.32v44.32h-22.15V67.16z"/>
		</g>
		<path class="st0" d="M547.82,67.16h64.98V86.2h-42.82v12.23h35.79v17.66h-35.79v12.81h43.4v19.05h-65.56V67.16z"/>
	</g>
	<g>
		<path class="st0" d="M228.14,177.31h20.6c17.36,0,29.35,11.91,29.35,27.45v0.16c0,15.54-12,27.61-29.35,27.61h-20.6V177.31z
			 M248.74,223.69c11.59,0,19.17-7.81,19.17-18.62v-0.15c0-10.8-7.58-18.78-19.17-18.78h-10.89v37.54H248.74z"/>
		<path class="st0" d="M289.53,177.31h9.7v55.22h-9.7V177.31z"/>
		<path class="st0" d="M311.07,205.08v-0.15c0-15.47,11.83-28.56,28.48-28.56c9.63,0,15.54,2.69,21.22,7.49l-6.15,7.34
			c-4.27-3.63-8.45-5.91-15.47-5.91c-10.17,0-17.9,8.91-17.9,19.48v0.16c0,11.36,7.49,19.72,18.77,19.72
			c5.21,0,9.95-1.66,13.34-4.18v-10.33h-14.13v-8.44h23.51v23.19c-5.44,4.65-13.24,8.59-23.03,8.59
			C322.43,233.48,311.07,221.17,311.07,205.08z"/>
		<path class="st0" d="M375.92,177.31h9.7v55.22h-9.7V177.31z"/>
		<path class="st0" d="M414.11,186.31h-17.52v-9h44.81v9h-17.51v46.22h-9.78V186.31z"/>
		<path class="st0" d="M463.57,176.92h8.99l24.3,55.61h-10.25l-5.6-13.33h-26.12l-5.68,13.33h-9.93L463.57,176.92z M477.45,210.6
			l-9.54-22.09l-9.46,22.09H477.45z"/>
		<path class="st0" d="M506.89,177.31h9.71v46.38h29.03v8.84h-38.74V177.31z"/>
	</g>
	<rect x="7.85" y="177.28" class="st1" width="146.86" height="146.87"/>
	<path class="st2" d="M162.5,81.41c0,44.85-36.36,81.21-81.22,81.21c-44.85,0-81.21-36.36-81.21-81.21
		c0-44.86,36.36-81.22,81.23-81.22C126.14,0.19,162.5,36.55,162.5,81.41z"/>
</g>
</svg>
