<svg width="121" height="32" viewBox="0 0 121 32" fill="none" xmlns="http://www.w3.org/2000/svg">
<path d="M3.55556 0C1.59188 0 0 1.59188 0 3.55556V28.4444C0 30.4081 1.59188 32 3.55556 32H117.333C119.297 32 120.889 30.4081 120.889 28.4444V3.55556C120.889 1.59188 119.297 0 117.333 0H3.55556Z" fill="#D2DB5C"/>
<path d="M10.1428 18.0635V23.3237H7.02087V8.35556H12.0459C12.8584 8.35556 13.5997 8.4696 14.2697 8.69769C14.9397 8.92578 15.5099 9.24652 15.9804 9.65993C16.4508 10.0733 16.8143 10.5794 17.0709 11.1781C17.3275 11.7769 17.4558 12.454 17.4558 13.2095C17.4558 13.9508 17.3204 14.6279 17.0495 15.2409C16.7929 15.8396 16.4223 16.3457 15.9376 16.7591C15.4672 17.1725 14.897 17.4933 14.227 17.7213C13.5712 17.9494 12.8442 18.0635 12.0459 18.0635H10.1428ZM11.7038 15.5617C12.5163 15.5617 13.1436 15.3621 13.5855 14.9629C14.0416 14.5495 14.2697 13.9722 14.2697 13.2309C14.2697 12.4754 14.0416 11.898 13.5855 11.4989C13.1436 11.0997 12.5163 10.9001 11.7038 10.9001H10.1428V15.5617H11.7038Z" fill="black"/>
<path d="M24.5578 17.6572V23.3237H21.4572V8.35556H27.3162C28.1287 8.35556 28.8486 8.47673 29.4759 8.71907C30.1174 8.94716 30.6519 9.2679 31.0796 9.68131C31.5215 10.0805 31.8565 10.5651 32.0846 11.1354C32.3269 11.6913 32.4481 12.29 32.4481 12.9315C32.4481 13.3735 32.3768 13.8154 32.2343 14.2573C32.106 14.6992 31.9135 15.1055 31.6569 15.4761C31.4003 15.8468 31.0796 16.1818 30.6947 16.4811C30.3098 16.7662 29.8679 16.9872 29.369 17.144L33.9877 23.2596V23.3237H30.374L26.1615 17.6572H24.5578ZM24.5578 15.3478H26.7602C27.4872 15.3478 28.0717 15.1625 28.5136 14.7919C28.9698 14.407 29.1979 13.8581 29.1979 13.1454C29.1979 12.4326 28.9698 11.8909 28.5136 11.5203C28.0717 11.1354 27.4872 10.9429 26.7602 10.9429H24.5578V15.3478Z" fill="black"/>
<path d="M37.3553 8.35556H47.6619V11.0712H40.4772V14.4711H45.823V17.0371H40.4772V20.6081H47.8758V23.3237H37.3553V8.35556Z" fill="black"/>
<path d="M52.084 8.35556H56.6386L59.953 17.9138H59.9957L63.3956 8.35556H67.8861V23.3237H64.7855V11.8838H64.7428L60.5731 23.3237H59.1832L55.1204 11.8838H55.0776V23.3237H52.084V8.35556Z" fill="black"/>
<path d="M72.952 8.35556H76.0739V23.3237H72.952V8.35556Z" fill="black"/>
<path d="M93.1192 8.35556V17.9566C93.1192 18.8119 92.9837 19.5888 92.7129 20.2873C92.442 20.9858 92.05 21.5845 91.5368 22.0835C91.0236 22.5824 90.3964 22.9673 89.6551 23.2382C88.9138 23.509 88.0727 23.6445 87.1319 23.6445C86.2196 23.6445 85.3856 23.5233 84.6301 23.2809C83.8745 23.0386 83.2259 22.6893 82.6842 22.2332C82.1568 21.7627 81.7434 21.1854 81.444 20.5011C81.1589 19.8169 81.0163 19.0328 81.0163 18.149V8.35556H84.1383V17.8924C84.1383 18.4199 84.2167 18.876 84.3735 19.2609C84.5303 19.6458 84.737 19.9666 84.9936 20.2232C85.2644 20.4655 85.5781 20.6437 85.9344 20.7577C86.3051 20.8718 86.69 20.9288 87.0891 20.9288C87.5025 20.9288 87.8874 20.8718 88.2438 20.7577C88.6145 20.6437 88.9352 20.4726 89.2061 20.2445C89.4912 20.0022 89.7121 19.6886 89.8689 19.3037C90.04 18.9188 90.1255 18.4626 90.1255 17.9352V8.35556H93.1192Z" fill="black"/>
<path d="M98.0659 8.35556H102.621L105.935 17.9138H105.978L109.378 8.35556H113.868V23.3237H110.767V11.8838H110.725L106.555 23.3237H105.165L101.102 11.8838H101.06V23.3237H98.0659V8.35556Z" fill="black"/>
</svg>
