<svg width="264" height="30" viewBox="0 0 264 30" fill="none" xmlns="http://www.w3.org/2000/svg">
<path d="M0.672849 17.7744V7.19108C0.672849 5.32672 0.448566 3.35023 0 1.40177H6.04163C5.57904 3.35023 5.35476 5.32672 5.35476 7.19108V17.7744C5.35476 19.6248 5.57904 21.6013 6.04163 23.5497H0C0.448566 21.6013 0.672849 19.6248 0.672849 17.7744Z" fill="#00605C"/>
<path d="M8.94329 13.0224C8.94329 10.7516 8.76106 8.77508 8.08821 6.8126C9.60212 6.72849 11.074 6.51823 12.686 6.16779C12.9664 7.31724 13.1486 8.62088 13.1486 9.84042V10.1768C13.6392 7.2051 15.7559 6.04163 18.2791 6.1818V10.7235C16.5269 10.3871 14.7606 10.6114 13.3729 11.5506V19.807C13.3729 21.2228 13.5551 22.0639 13.9897 23.5637H8.29848C8.71901 22.0639 8.94329 20.564 8.94329 19.1622V13.0224Z" fill="#00605C"/>
<path d="M20.8163 19.1622V13.3729C20.8163 10.9478 20.6481 8.8732 19.9612 6.8126C21.7695 6.72849 23.6058 6.49019 25.2459 6.16779V19.1622C25.2459 20.564 25.4281 22.0639 25.8626 23.5497H20.1855C20.62 22.0498 20.8303 20.5499 20.8303 19.1622H20.8163ZM22.8909 0C24.587 0 25.5122 0.925168 25.5122 2.4531C25.5122 3.98103 24.6011 4.94825 22.8909 4.94825C21.1807 4.94825 20.1995 4.02308 20.1995 2.4531C20.1995 0.883115 21.1527 0 22.8909 0Z" fill="#00605C"/>
<path d="M27.6709 22.8208L28.0915 18.7136C29.5493 20.2556 31.2454 21.2088 33.1378 21.2088C34.5396 21.2088 35.1564 20.6901 35.1564 19.7089C35.1564 18.8678 34.7218 18.1529 33.3481 17.3119L31.0632 15.9101C28.7783 14.5083 27.727 12.9804 27.727 10.9759C27.727 8.14428 29.8016 6.16779 34.1191 6.16779C35.7031 6.16779 37.3572 6.43412 38.7589 7.02287L37.9599 11.074C36.7965 9.65819 35.2825 8.88722 33.6285 8.88722C32.2968 8.88722 31.8062 9.39186 31.8062 10.1208C31.8062 10.9759 32.3528 11.6067 33.6985 12.4477L35.7872 13.7514C38.1281 15.2232 39.1935 16.667 39.1935 18.8398C39.1935 21.9377 37.0348 23.9282 32.7453 23.9282C30.9651 23.9282 29.1989 23.5918 27.6569 22.8208H27.6709Z" fill="#00605C"/>
<path d="M51.0665 19.1482V11.9431C51.0665 10.0086 50.2394 9.43391 48.6694 9.43391C47.7443 9.43391 46.7771 9.63016 45.8799 10.0647V19.1482C45.8799 20.564 46.0481 22.0639 46.4967 23.5497H40.8195C41.2541 22.0498 41.4643 20.5499 41.4643 19.1482V5.35476C41.4643 3.65862 41.2961 2.10265 40.6093 0.574726C42.4175 0.490619 44.0857 0.322407 45.8939 0.0560708V9.18159C46.7911 7.33125 48.5853 6.16779 50.9543 6.16779C54.0242 6.16779 55.5101 8.03214 55.5101 11.5085V19.1482C55.5101 20.5499 55.7344 22.0779 56.1269 23.5497H50.4777C50.8562 22.0639 51.0945 20.5499 51.0945 19.1482H51.0665Z" fill="#00605C"/>
<path d="M63.5142 17.7744V7.19108C63.5142 5.32672 63.2899 3.35023 62.8413 1.40177H68.883C68.4204 3.35023 68.1961 5.32672 68.1961 7.19108V17.7744C68.1961 19.6248 68.4204 21.6013 68.883 23.5497H62.8413C63.2899 21.6013 63.5142 19.6248 63.5142 17.7744Z" fill="#00605C"/>
<path d="M81.4008 19.1482V11.9431C81.4008 10.0086 80.5737 9.43391 79.0037 9.43391C78.0786 9.43391 77.1113 9.63016 76.2142 10.0647V19.1482C76.2142 20.564 76.3964 22.0639 76.831 23.5497H71.1538C71.5884 22.0498 71.7986 20.5499 71.7986 19.1482V12.7281C71.7986 10.8217 71.6304 8.94329 70.9436 6.8126C72.5976 6.71448 74.1116 6.49019 75.7937 6.1818C76.0039 7.10697 76.1722 8.11625 76.2142 9.20963C77.1113 7.34527 78.9056 6.1818 81.2886 6.1818C84.3725 6.1818 85.8444 8.04616 85.8444 11.4945V19.1482C85.8444 20.5499 86.0686 22.0779 86.4611 23.5497H80.798C81.2045 22.0639 81.4288 20.5499 81.4288 19.1482H81.4008Z" fill="#00605C"/>
<path d="M88.1152 15.5456C88.1152 8.11625 92.7831 6.16779 96.8483 6.16779C97.6473 6.16779 98.3482 6.22386 98.9649 6.36403V5.59306C98.9649 3.7988 98.7827 2.2148 98.1098 0.616779C99.8621 0.532672 101.628 0.336425 103.409 0.0700885V15.2232C103.409 18.2931 103.675 20.9004 104.292 23.1292C102.61 23.2554 101.208 23.5077 99.3294 23.9282C99.2313 22.9329 99.1612 21.9097 99.0911 20.9284C98.3762 22.7647 96.7642 23.9282 94.4372 23.9282C90.6805 23.9282 88.1152 20.9144 88.1152 15.5596V15.5456ZM96.5539 20.8443C97.3809 20.8443 98.236 20.634 99.063 20.1715C99.007 18.9239 98.979 17.7464 98.979 16.6951V9.2657C98.3482 8.83115 97.5491 8.59285 96.652 8.59285C93.8485 8.59285 92.6149 10.5974 92.699 14.8728C92.7831 19.036 94.1569 20.8723 96.5539 20.8723V20.8443Z" fill="#00605C"/>
<path d="M105.778 14.9849C105.778 9.12552 109.03 6.16779 113.768 6.16779C119.781 6.16779 120.58 11.1581 119.767 15.083H110.403C110.431 18.8818 111.931 20.6901 114.959 20.6901C116.599 20.6901 118.085 20.1995 119.375 19.3444L120.09 21.9938C118.393 23.2273 116.221 23.9282 113.655 23.9282C108.455 23.9282 105.792 20.1855 105.792 14.9989L105.778 14.9849ZM115.772 12.5599C116.081 9.75632 115.38 8.48071 113.515 8.48071C111.847 8.48071 110.586 9.53203 110.417 12.7982L115.772 12.5458V12.5599Z" fill="#00605C"/>
<path d="M126.888 23.6619V25.316C126.888 26.5075 127.169 28.0214 127.715 29.5072H121.856C122.276 28.0214 122.473 26.5075 122.473 25.316V12.8122C122.473 10.5834 122.318 8.95731 121.632 6.82662C123.468 6.70046 124.645 6.47618 126.482 6.1818C126.678 7.0509 126.832 8.0041 126.888 9.01338C127.659 7.31724 129.327 6.16779 131.612 6.16779C135.369 6.16779 137.766 9.15355 137.766 14.256C137.766 21.9097 133.098 23.9002 129.019 23.9002C128.276 23.9002 127.561 23.8301 126.902 23.6619H126.888ZM129.187 21.4891C132.243 21.4891 133.21 19.0781 133.182 14.9989C133.14 10.7516 131.584 9.27971 129.425 9.27971C128.598 9.27971 127.715 9.48998 126.888 9.9806V20.8303C127.533 21.2929 128.304 21.4891 129.173 21.4891H129.187Z" fill="#00605C"/>
<path d="M139.616 14.9849C139.616 9.12552 142.868 6.16779 147.606 6.16779C153.62 6.16779 154.419 11.1581 153.592 15.083H144.228C144.256 18.8818 145.756 20.6901 148.784 20.6901C150.424 20.6901 151.91 20.1995 153.199 19.3444L153.914 21.9938C152.218 23.2273 150.045 23.9282 147.48 23.9282C142.294 23.9282 139.616 20.1855 139.616 14.9989V14.9849ZM149.611 12.5599C149.919 9.75632 149.218 8.48071 147.354 8.48071C145.686 8.48071 144.424 9.53203 144.256 12.7982L149.611 12.5458V12.5599Z" fill="#00605C"/>
<path d="M166.152 19.1482V11.9431C166.152 10.0086 165.325 9.43391 163.755 9.43391C162.83 9.43391 161.862 9.63016 160.965 10.0647V19.1482C160.965 20.564 161.147 22.0639 161.582 23.5497H155.905C156.339 22.0498 156.55 20.5499 156.55 19.1482V12.7281C156.55 10.8217 156.381 8.94329 155.695 6.8126C157.349 6.71448 158.863 6.49019 160.545 6.1818C160.755 7.10697 160.923 8.11625 160.965 9.20963C161.862 7.34527 163.657 6.1818 166.04 6.1818C169.124 6.1818 170.595 8.04616 170.595 11.4945V19.1482C170.595 20.5499 170.82 22.0779 171.212 23.5497H165.549C165.955 22.0639 166.18 20.5499 166.18 19.1482H166.152Z" fill="#00605C"/>
<path d="M172.88 15.5456C172.88 8.11625 177.548 6.16779 181.613 6.16779C182.412 6.16779 183.113 6.22386 183.73 6.36403V5.59306C183.73 3.7988 183.548 2.2148 182.875 0.616779C184.627 0.532672 186.393 0.336425 188.174 0.0700885V15.2232C188.174 18.2931 188.44 20.9004 189.057 23.1292C187.375 23.2554 185.973 23.5077 184.094 23.9282C183.996 22.9329 183.926 21.9097 183.856 20.9284C183.141 22.7647 181.529 23.9282 179.202 23.9282C175.445 23.9282 172.88 20.9144 172.88 15.5596V15.5456ZM181.319 20.8443C182.146 20.8443 183.001 20.634 183.828 20.1715C183.772 18.9239 183.744 17.7464 183.744 16.6951V9.2657C183.113 8.83115 182.314 8.59285 181.417 8.59285C178.613 8.59285 177.38 10.5974 177.464 14.8728C177.548 19.036 178.922 20.8723 181.319 20.8723V20.8443Z" fill="#00605C"/>
<path d="M190.529 14.9849C190.529 9.12552 193.781 6.16779 198.519 6.16779C204.532 6.16779 205.331 11.1581 204.518 15.083H195.154C195.182 18.8818 196.682 20.6901 199.71 20.6901C201.35 20.6901 202.836 20.1995 204.126 19.3444L204.841 21.9938C203.144 23.2273 200.972 23.9282 198.406 23.9282C193.206 23.9282 190.543 20.1855 190.543 14.9989L190.529 14.9849ZM200.523 12.5599C200.832 9.75632 200.131 8.48071 198.266 8.48071C196.598 8.48071 195.337 9.53203 195.168 12.7982L200.523 12.5458V12.5599Z" fill="#00605C"/>
<path d="M217.078 19.1482V11.9431C217.078 10.0086 216.251 9.43391 214.681 9.43391C213.756 9.43391 212.789 9.63016 211.891 10.0647V19.1482C211.891 20.564 212.074 22.0639 212.508 23.5497H206.831C207.266 22.0498 207.476 20.5499 207.476 19.1482V12.7281C207.476 10.8217 207.308 8.94329 206.621 6.8126C208.275 6.71448 209.789 6.49019 211.471 6.1818C211.681 7.10697 211.849 8.11625 211.891 9.20963C212.789 7.34527 214.583 6.1818 216.966 6.1818C220.05 6.1818 221.522 8.04616 221.522 11.4945V19.1482C221.522 20.5499 221.746 22.0779 222.138 23.5497H216.475C216.882 22.0639 217.106 20.5499 217.106 19.1482H217.078Z" fill="#00605C"/>
<path d="M225.615 18.6996V9.06945H223.274V6.56028C224.059 6.56028 224.844 6.54626 225.615 6.54626C225.615 5.29869 225.573 4.05111 225.348 2.6914C226.428 2.10265 228.208 1.47186 230.044 1.27561V6.44814C231.6 6.40609 233.086 6.35002 234.502 6.23787C234.558 7.33125 234.502 8.25642 234.348 9.19561C233.002 9.13954 231.558 9.1115 230.058 9.09748V18.7417C230.058 20.2696 230.675 20.9144 231.937 20.9144C232.722 20.9144 233.577 20.7182 234.446 20.3957L234.923 22.4423C233.717 23.4096 231.698 23.9142 230.002 23.9142C227.059 23.9142 225.629 22.5124 225.629 18.6996H225.615Z" fill="#00605C"/>
<path d="M256.047 0.91115C252.991 0.91115 250.735 1.4298 248.071 1.4298C246.193 1.4298 243.726 1.12142 242.1 0.266336L241.525 1.68212C243.333 2.60729 245.786 2.97175 248.071 2.97175C250.763 2.97175 253.174 2.35497 256.047 2.35497C259.229 2.35497 261.528 3.81281 261.528 6.5743C261.528 7.69572 261.108 8.70499 260.435 9.77033L251.085 24.573C252.192 25.2319 253.272 25.7505 254.477 26.2411L261.893 10.5834C262.551 9.18159 263.014 7.87794 263.014 6.50421C263.014 3.06988 260.182 0.925168 256.061 0.925168L256.047 0.91115Z" fill="#00605C"/>
<path d="M249.823 23.732L259.229 9.12552C259.79 8.25642 260.084 7.5275 260.084 6.65841C260.084 5.06039 259.005 3.68665 256.047 3.68665C253.09 3.68665 250.959 4.3595 248.071 4.3595C245.758 4.3595 243.221 4.0371 241.16 3.05586V6.61635C241.819 6.86867 242.534 7.06492 243.291 7.21911C242.352 13.7093 244.595 19.793 249.823 23.7179V23.732ZM244.595 7.42938C245.071 7.48545 245.548 7.51348 246.025 7.5275C245.324 12.0132 246.431 17.0736 250.384 20.634L249.613 21.8396C245.492 18.209 243.768 12.8542 244.595 7.42938ZM254.856 13.6112L254.015 14.9288L251.646 6.77055C252.024 6.67242 252.403 6.58832 252.781 6.49019L254.856 13.6252V13.6112ZM254.015 6.16779C254.435 6.05564 254.814 5.97154 255.15 5.88743L256.608 10.8637L255.767 12.1814L254.015 6.16779ZM253.09 16.3727L252.262 17.6763L249.221 7.2892C249.613 7.21911 249.992 7.14902 250.384 7.06492L253.09 16.3727ZM251.337 19.1201L251.099 19.4986C247.595 16.2045 246.669 11.6347 247.356 7.49947C247.553 7.49947 247.749 7.47143 247.931 7.4434L251.323 19.1061L251.337 19.1201ZM258.626 6.99483C258.626 7.49947 258.402 8.03214 258.122 8.49472L257.533 9.43391L256.44 5.67717C256.65 5.66315 256.846 5.64913 257.042 5.64913C257.94 5.64913 258.641 6.11172 258.641 7.00885L258.626 6.99483Z" fill="#00605C"/>
<path d="M249.739 24.9795C248.716 24.9795 247.875 25.8066 247.875 26.7878C247.875 27.7691 248.716 28.6802 249.739 28.6101C250.72 28.6101 251.505 27.8111 251.505 26.7878C251.505 25.7645 250.706 24.9795 249.739 24.9795Z" fill="#00605C"/>
</svg>
