<svg width="48" height="48" viewBox="0 0 48 48" fill="none" xmlns="http://www.w3.org/2000/svg">
<rect width="48" height="48" fill="white"/>
<rect width="48" height="24" fill="white"/>
<path d="M0 48H48V24H0V48Z" fill="url(#paint0_linear)"/>
<path opacity="0.35" d="M48 30.97V24H0V38.28V40.14C0 39.9925 0.075 38.8925 1.215 38.735C1.2925 38.725 46.74 32.3375 46.74 32.3375C47.3825 32.245 48 31.8 48 30.97Z" fill="url(#paint1_linear)"/>
<path fill-rule="evenodd" clip-rule="evenodd" d="M22.385 16.4575C22.385 17.365 22.03 17.8875 20.26 17.8875C20.025 17.8875 19.8225 17.8725 19.625 17.8425V5.8175C19.625 4.9025 19.935 3.95 21.72 3.95C21.9475 3.95 22.175 3.9725 22.385 4.0175V16.4575ZM29.62 21.11C29.855 21.23 30.33 21.375 30.9275 21.39C31.955 21.4125 32.515 21.02 32.9325 20.0975L38.445 7.8C38.2175 7.68 37.7125 7.5425 37.3025 7.535C36.5925 7.52 35.6375 7.6625 35.0325 9.115L33.25 13.325L29.7475 7.6225C29.52 7.555 28.9675 7.455 28.5675 7.455C27.3275 7.455 26.64 7.9075 25.92 8.6875L22.5175 12.4125L25.255 16.7225C25.7625 17.51 26.4275 17.91 27.51 17.91C28.22 17.91 28.81 17.745 29.0825 17.615L25.785 12.645L28.1225 10.165L31.9575 16.185L29.62 21.11ZM15.385 17.8125C17.63 17.57 18.735 16.3375 18.735 14.6425C18.735 13.1825 17.835 11.995 15.75 11.61L13.715 11.2325C13.0625 11.12 12.655 10.9675 12.655 10.5975C12.655 10.25 13.0875 9.9625 14.1225 9.9625C14.7051 9.9625 15.2461 9.99675 15.7101 10.0261C16.0584 10.0482 16.3634 10.0675 16.61 10.0675C17.3575 10.0675 18.1375 9.75 18.1375 8.275C18.1375 8.0775 18.115 7.8975 18.0775 7.7075C16.965 7.5725 14.94 7.3675 13.275 7.55C11.075 7.79 9.955 9.115 9.955 10.695C9.955 11.995 10.9 13.22 12.67 13.56L14.8025 13.9675C15.5825 14.12 15.9825 14.2925 15.9825 14.7175C15.9825 15.0425 15.68 15.3825 14.675 15.3825C14.2041 15.3825 13.6477 15.3461 13.1123 15.3112C12.616 15.2787 12.1377 15.2475 11.7625 15.2475C11.015 15.2475 10.22 15.5875 10.22 17.0625C10.22 17.245 10.25 17.47 10.2875 17.6525C11.4075 17.7825 13.76 17.9875 15.385 17.8125Z" fill="#1C1C1C"/>
<path opacity="0.25" fill-rule="evenodd" clip-rule="evenodd" d="M19.625 5.8175V13.8425C19.625 13.754 19.6279 13.7108 19.6313 13.6602C19.6334 13.6294 19.6356 13.5958 19.6375 13.5475C19.65 13.2175 19.8975 12.905 20.3175 12.845C20.6175 12.8025 21.4825 12.68 21.74 12.645C21.9575 12.615 22.33 12.4575 22.385 12.05V4.0175C22.1725 3.9725 21.945 3.95 21.72 3.95C19.935 3.9475 19.625 4.9025 19.625 5.8175ZM28.5675 7.455C28.9675 7.455 29.52 7.555 29.7475 7.6225L32.169 11.5659C32.0429 11.362 31.6294 11.2551 31.39 11.2875C31.2643 11.3061 30.7535 11.3777 30.3232 11.438L30.3231 11.438C30.0003 11.4833 29.7229 11.5221 29.6875 11.5275C29.345 11.575 28.9725 11.5 28.815 11.2525L28.1225 10.165L26.79 11.5775C26.525 11.8575 26.14 12.0225 25.81 12.07C25.4575 12.12 23.2775 12.4275 23.075 12.455C22.765 12.5 22.5175 12.4125 22.5175 12.4125L25.92 8.6875C26.64 7.9075 27.3275 7.455 28.5675 7.455ZM37.4325 10.055L38.445 7.7975C38.2175 7.6775 37.7125 7.54 37.305 7.53C36.5925 7.515 35.64 7.6575 35.035 9.11C35.035 9.11 34.03 11.48 34.115 11.28C34.215 11.04 34.53 10.8425 34.76 10.81C34.76 10.81 36.6275 10.5475 36.7575 10.53C37.0375 10.4925 37.3375 10.2675 37.4325 10.055ZM15.7475 11.61C17.4325 11.92 18.345 12.755 18.6325 13.8325C18.4725 13.31 17.82 13.195 17.25 13.275C17.0499 13.3031 16.7842 13.3405 16.4996 13.3805C15.9487 13.458 15.3269 13.5455 14.9725 13.595C14.105 13.7175 12.2425 13.5725 11.39 13.0925C11.315 13.05 11.2075 12.9775 11.1475 12.935C11.145 12.9325 11.1419 12.9306 11.1388 12.9287C11.1356 12.9269 11.1325 12.925 11.13 12.9225C10.355 12.3625 9.9525 11.545 9.9525 10.695C9.9525 9.115 11.0725 7.7925 13.2725 7.55C14.935 7.3675 16.9625 7.5725 18.075 7.7075C18.1125 7.8975 18.135 8.0775 18.135 8.275C18.135 9.75 17.355 10.0675 16.6075 10.0675C16.3609 10.0675 16.0559 10.0482 15.7076 10.0261C15.2436 9.99675 14.7026 9.9625 14.12 9.9625C13.0825 9.9625 12.6525 10.25 12.6525 10.5975C12.6525 10.9675 13.0625 11.12 13.7125 11.2325L15.7475 11.61Z" fill="url(#paint2_linear)"/>
<path d="M14.57 35.3275V39.115C14.57 39.3925 14.41 39.5675 13.9275 39.5675C13.7225 39.5675 13.4875 39.5375 13.3725 39.51V35.4875C13.3725 34.0825 12.685 33.41 11.6475 33.41C10.8425 33.41 9.965 33.965 9.615 34.625V39.115C9.615 39.3925 9.455 39.5675 8.9725 39.5675C8.7675 39.5675 8.5325 39.5375 8.4175 39.51V32.475C8.535 32.445 8.7675 32.4175 8.9725 32.4175C9.455 32.4175 9.615 32.5925 9.615 32.87V33.47C10.1275 32.84 10.9025 32.345 11.94 32.345C13.37 32.3425 14.57 33.25 14.57 35.3275Z" fill="white"/>
<path fill-rule="evenodd" clip-rule="evenodd" d="M17.23 36.425H22.67C22.7 36.175 22.715 35.9275 22.7175 35.725C22.7175 34.03 21.65 32.3475 19.485 32.3475C17.57 32.3475 16.005 33.87 16.005 35.975C16.005 38.1675 17.48 39.645 19.675 39.645C20.6825 39.645 21.6475 39.3375 22.2775 39.06C22.335 38.415 22.1175 38.1375 21.78 38.1375C21.665 38.1375 21.5325 38.18 21.225 38.2825C20.785 38.4275 20.3175 38.545 19.7175 38.545C18.3275 38.545 17.39 37.785 17.23 36.425ZM21.545 35.4875H17.23C17.42 34.0975 18.4 33.3525 19.4825 33.3525C20.725 33.3525 21.5 34.2875 21.545 35.4875Z" fill="white"/>
<path d="M33.7475 32.5925L31.89 39.0575C31.7725 39.4675 31.465 39.57 31.0275 39.57C30.78 39.57 30.53 39.525 30.325 39.4675L28.555 33.7775L26.8875 39.0575C26.755 39.4675 26.435 39.57 26.04 39.57C25.7925 39.57 25.5125 39.525 25.3075 39.4675L23.3175 32.5925C23.4925 32.505 23.815 32.4175 24.0775 32.4175C24.415 32.4175 24.59 32.52 24.6775 32.8425L26.0825 38.24H26.0975L27.8375 32.595C28.0425 32.4775 28.305 32.42 28.5825 32.42C29.035 32.42 29.285 32.5225 29.415 32.9475L31.025 38.2425H31.04L32.4 32.845C32.4875 32.5225 32.6625 32.42 33 32.42C33.265 32.4175 33.57 32.505 33.7475 32.5925Z" fill="white"/>
<path d="M34.5325 39.16C34.445 38.545 34.635 38.225 34.985 38.225C35.3225 38.225 36.14 38.59 37.28 38.59C38.48 38.59 38.9325 38.165 38.9325 37.61C38.9325 37.215 38.7575 36.865 37.675 36.5725L36.4325 36.235C35.0575 35.87 34.5175 35.1825 34.5175 34.3325C34.5175 33.28 35.35 32.3425 37.2375 32.3425C38.085 32.3425 39.14 32.5325 39.7825 32.7825C39.9 33.3825 39.71 33.705 39.3425 33.705C39.02 33.705 38.29 33.3975 37.25 33.3975C36.1375 33.3975 35.73 33.7775 35.73 34.275C35.73 34.625 35.89 34.9475 36.885 35.225L38.1575 35.575C39.575 35.97 40.1475 36.6275 40.1475 37.565C40.1475 38.6625 39.3 39.6425 37.2525 39.6425C36.345 39.6425 35.22 39.4225 34.5325 39.16Z" fill="white"/>
<defs>
<linearGradient id="paint0_linear" x1="1.62512" y1="24.9001" x2="1.62512" y2="47.2749" gradientUnits="userSpaceOnUse">
<stop offset="0.4" stop-color="#E90E10"/>
<stop offset="1" stop-color="#BC0000"/>
</linearGradient>
<linearGradient id="paint1_linear" x1="44.628" y1="34.6576" x2="44.4115" y2="21.0333" gradientUnits="userSpaceOnUse">
<stop stop-color="white"/>
<stop offset="1" stop-color="white" stop-opacity="0.25"/>
</linearGradient>
<linearGradient id="paint2_linear" x1="36.183" y1="11.9076" x2="36.0464" y2="3.83961" gradientUnits="userSpaceOnUse">
<stop stop-color="white"/>
<stop offset="1" stop-color="white" stop-opacity="0.25"/>
</linearGradient>
</defs>
</svg>
